<svg viewBox="0 0 209.252 57.898" xmlns="http://www.w3.org/2000/svg"><g fill="#432"><path d="m96.338 34.514a15 15 0 0 0 -.613-1.43 3.419 3.419 0 0 0 -.681-.954 2.4 2.4 0 0 0 -.886-.545 5.769 5.769 0 0 0 -1.158-.272v-.613h1.022a10.238 10.238 0 0 1 1.362.136 3.941 3.941 0 0 1 1.43.477 6.852 6.852 0 0 1 1.362 1.158 6.8 6.8 0 0 1 1.09 2.112l4.088 11.717 3.27-9.6-.749-2.112a15 15 0 0 0 -.613-1.43 3.419 3.419 0 0 0 -.681-.954 2.4 2.4 0 0 0 -.886-.545 5.769 5.769 0 0 0 -1.158-.272v-.613h1.022a10.237 10.237 0 0 1 1.362.136 3.941 3.941 0 0 1 1.43.477 6.852 6.852 0 0 1 1.362 1.158 6.8 6.8 0 0 1 1.09 2.112l4.087 11.716 5.177-15.258h1.294l-7.016 20.23h-.613l-4.5-12.806-4.359 12.806h-.613z" transform="translate(-29.652 -9.789)"/><path d="m150.652 37.312a7.954 7.954 0 0 0 -2.112-4.359 5.715 5.715 0 0 0 -4.087-1.362 7.525 7.525 0 0 0 -2.793.477 6.012 6.012 0 0 0 -2.316 1.635 7.367 7.367 0 0 0 -1.567 3 14.961 14.961 0 0 0 -.545 4.564 13.573 13.573 0 0 0 .409 3.338 8.745 8.745 0 0 0 1.294 2.929 7.148 7.148 0 0 0 2.248 2.043 6.552 6.552 0 0 0 3.338.817 6.665 6.665 0 0 0 3.879-1.094 10.873 10.873 0 0 0 2.929-3.133l.613.477a9.166 9.166 0 0 1 -1.635 2.384 10.128 10.128 0 0 1 -1.907 1.567 6.358 6.358 0 0 1 -2.248.817 15.089 15.089 0 0 1 -2.588.272 9.007 9.007 0 0 1 -3.883-.817 9.709 9.709 0 0 1 -3-2.18 10.334 10.334 0 0 1 -1.907-3.27 12.745 12.745 0 0 1 -.674-4.017 12.918 12.918 0 0 1 .749-4.291 11.132 11.132 0 0 1 2.043-3.474 8.276 8.276 0 0 1 3-2.316 8.533 8.533 0 0 1 3.678-.817 11.962 11.962 0 0 1 4.359.681 6.179 6.179 0 0 1 2.657 1.7 3.253 3.253 0 0 1 .681 1.975c.068.817.068 1.7.068 2.588h-.681z" transform="translate(-42.756 -9.725)"/><path d="m170.37 31.1c.817 0 1.635.068 2.657.136a8.541 8.541 0 0 1 2.657.749 4.756 4.756 0 0 1 2.043 1.635 4.529 4.529 0 0 1 .817 2.793 4.008 4.008 0 0 1 -.954 2.52 6.114 6.114 0 0 1 -3 1.839 9.678 9.678 0 0 1 2.452.681 4.269 4.269 0 0 1 1.5 1.09 3.031 3.031 0 0 1 .817 1.43 6.862 6.862 0 0 1 .2 1.7 5 5 0 0 1 -.749 2.793 5.284 5.284 0 0 1 -1.975 1.7 8.625 8.625 0 0 1 -2.657.817 21.17 21.17 0 0 1 -2.929.2h-6.062v-16.405a4.976 4.976 0 0 0 -.409-2.18c-.272-.545-.817-.817-1.771-.817h-.607v-.613h7.97zm.477 9.264a5.079 5.079 0 0 0 1.771-.272 6.63 6.63 0 0 0 1.567-.749 3.368 3.368 0 0 0 1.09-1.294 3.583 3.583 0 0 0 .409-1.771 3.1 3.1 0 0 0 -.545-1.839 3.918 3.918 0 0 0 -1.294-1.294 6.932 6.932 0 0 0 -1.771-.749 9.581 9.581 0 0 0 -1.907-.2 7.4 7.4 0 0 0 -1.226.068c-.409.068-.749.136-1.09.2v7.9zm-2.929 1.226v8.038a10.886 10.886 0 0 0 1.43.341 10.162 10.162 0 0 0 1.43.136 7.149 7.149 0 0 0 4.291-1.09 4.085 4.085 0 0 0 .068-6.267 6.879 6.879 0 0 0 -4.291-1.09h-2.929z" transform="translate(-51.78 -9.916)"/><path d="m219.152 37.312a7.954 7.954 0 0 0 -2.112-4.359 5.715 5.715 0 0 0 -4.087-1.362 7.525 7.525 0 0 0 -2.793.477 6.013 6.013 0 0 0 -2.316 1.635 7.367 7.367 0 0 0 -1.567 3 14.962 14.962 0 0 0 -.545 4.564 13.574 13.574 0 0 0 .409 3.338 8.745 8.745 0 0 0 1.294 2.929 6.423 6.423 0 0 0 2.248 2.043 6.552 6.552 0 0 0 3.338.817 6.665 6.665 0 0 0 3.879-1.094 10.873 10.873 0 0 0 2.929-3.133l.613.477a9.166 9.166 0 0 1 -1.635 2.384 10.128 10.128 0 0 1 -1.907 1.567 6.357 6.357 0 0 1 -2.248.817 15.089 15.089 0 0 1 -2.588.272 9.007 9.007 0 0 1 -3.883-.817 9.709 9.709 0 0 1 -3-2.18 11.148 11.148 0 0 1 -1.907-3.27 12.745 12.745 0 0 1 -.674-4.017 12.919 12.919 0 0 1 .749-4.291 11.133 11.133 0 0 1 2.043-3.474 8.892 8.892 0 0 1 3-2.316 8.533 8.533 0 0 1 3.678-.817 11.962 11.962 0 0 1 4.359.681 6.179 6.179 0 0 1 2.656 1.7 3.253 3.253 0 0 1 .681 1.975c.068.886.068 1.7.068 2.588h-.681z" transform="translate(-64.597 -9.725)"/><path d="m250.713 51.094a6.109 6.109 0 0 1 -1.226.136 9.57 9.57 0 0 1 -1.226-.136 3.377 3.377 0 0 1 -1.362-.545 4.547 4.547 0 0 1 -1.362-1.226 8.634 8.634 0 0 1 -1.158-2.112l-.749-1.975h-8.514l-2.452 5.79h-1.364l8.514-20.026h.886l6.675 16.212c.272.545.477 1.022.681 1.43a5.768 5.768 0 0 0 .681.954 2.156 2.156 0 0 0 .817.545 4.238 4.238 0 0 0 1.09.272v.681zm-15.19-6.948h7.425l-3.61-8.787z" transform="translate(-73.748 -9.884)"/><path d="m271.357 31.1a3.433 3.433 0 0 1 1.294.2 2.45 2.45 0 0 1 .817.545 1.624 1.624 0 0 1 .409.749 3.985 3.985 0 0 1 .136.886v2.32h-.613a3.4 3.4 0 0 0 -.954-2.657 4.266 4.266 0 0 0 -2.793-.817h-4.836v8.038h6.88v1.226h-6.88v9.536h-2.725v-16.348a4.977 4.977 0 0 0 -.409-2.18c-.272-.545-.817-.817-1.771-.817h-.612v-.613h12.056z" transform="translate(-82.675 -9.916)"/><path d="m295.642 31.1a3.433 3.433 0 0 1 1.294.2 2.449 2.449 0 0 1 .817.545 1.624 1.624 0 0 1 .409.749 3.987 3.987 0 0 1 .136.886v2.32h-.613a3.4 3.4 0 0 0 -.954-2.657 4.142 4.142 0 0 0 -2.793-.817h-5.654v7.9h8.174v1.226h-8.174v8.514h5.316a6.449 6.449 0 0 0 3.27-.749 4.89 4.89 0 0 0 1.907-2.588l.613.136-1.09 2.861a1.88 1.88 0 0 1 -.817 1.09 2.447 2.447 0 0 1 -1.5.409h-10.49v-16.347a4.977 4.977 0 0 0 -.409-2.18c-.272-.545-.817-.817-1.771-.817h-.613v-.613h12.942z" transform="translate(-90.136 -9.916)"/></g><path d="m29.7 59.362a14.227 14.227 0 0 1 -1.5-1.362h22.206a14.226 14.226 0 0 1 -1.5 1.362z" fill="#fff" transform="translate(-8.991 -18.493)"/><circle cx="28.949" cy="28.949" fill="#0bd" r="28.949"/><circle cx="28.949" cy="28.949" fill="#0bd" r="26.565"/><path d="m29.746 3.862a25.884 25.884 0 1 1 -25.884 25.884 25.873 25.873 0 0 1 25.884-25.884m0-1.362a27.246 27.246 0 1 0 27.247 27.246 27.283 27.283 0 0 0 -27.247-27.246z" fill="#fff" transform="translate(-.797 -.797)"/><circle cx="28.949" cy="28.949" fill="#8de1ff" r="16.007"/><path d="m34.688 19.362a15.326 15.326 0 1 1 -15.326 15.326 15.349 15.349 0 0 1 15.326-15.326m0-1.362a16.688 16.688 0 1 0 16.689 16.688 16.715 16.715 0 0 0 -16.689-16.688z" fill="#fff" transform="translate(-5.739 -5.739)"/><path d="m53.52 39.341s4.7-2.248 5.177.954-7.697 5.994-7.697 5.994" fill="none" stroke="#fff" stroke-width="2.5" transform="translate(-16.261 -12.299)"/><path d="m25.362 31h20.438a1.366 1.366 0 0 1 1.362 1.362l-4.09 13.623a1.366 1.366 0 0 1 -1.362 1.362h-12.261a1.366 1.366 0 0 1 -1.362-1.362l-4.087-13.623a1.366 1.366 0 0 1 1.362-1.362z" fill="#fff" transform="translate(-7.652 -9.884)"/><path d="m27.2 36.168c-.068-.2 3.2 10.9 3.2 10.9h12.194l3.2-11.1s-1.839 2.452-5.926 1.907-5.653-6.816-12.668-1.707z" fill="#0bd" transform="translate(-8.672 -10.897)"/><g fill="#fff"><path d="m27.7 59.362a14.226 14.226 0 0 1 -1.5-1.362h22.206a14.226 14.226 0 0 1 -1.5 1.362z" transform="translate(-8.354 -18.493)"/><path d="m11.035 22.875a4.341 4.341 0 0 1 -.477-.136h-.409c-.136 0-.2.068-.341.136-.068.068-.2.136-.272.272l-.136-.135a.238.238 0 0 0 .068-.136.211.211 0 0 0 .068-.136c.068-.136.2-.2.272-.341a1.425 1.425 0 0 1 .409-.272 1.283 1.283 0 0 1 .545-.136 1.6 1.6 0 0 1 .749.136l3.883 1.226-1.907-2.725-.681-.2a4.34 4.34 0 0 1 -.477-.136h-.409c-.136 0-.2.068-.341.136-.068.068-.2.136-.272.272l-.136-.136a.238.238 0 0 0 .068-.136c.068-.068.068-.136.136-.136.068-.136.2-.2.272-.341a1.425 1.425 0 0 1 .409-.272 1.283 1.283 0 0 1 .545-.136 1.6 1.6 0 0 1 .749.136l3.883 1.221-3-4.359.272-.341 3.951 5.79v.2l-4.223-1.362 2.52 3.61-.136.2z" transform="translate(-2.997 -5.165)"/><path d="m27.036 11.441a2.465 2.465 0 0 0 -1.294-.886 2.057 2.057 0 0 0 -1.362.272 1.491 1.491 0 0 0 -.681.613 2.3 2.3 0 0 0 -.409.817 2.05 2.05 0 0 0 .068 1.09 4.7 4.7 0 0 0 .613 1.362 4.373 4.373 0 0 0 .681.886 3.2 3.2 0 0 0 .817.613 2.176 2.176 0 0 0 .954.2 2.5 2.5 0 0 0 1.09-.341 2.561 2.561 0 0 0 .954-.954 2.869 2.869 0 0 0 .272-1.362h.272a4.189 4.189 0 0 1 -.068.954 2.44 2.44 0 0 1 -.272.749 3.743 3.743 0 0 1 -.477.613 2.446 2.446 0 0 1 -.681.477 2.9 2.9 0 0 1 -1.226.409 2.535 2.535 0 0 1 -1.226-.136 3.455 3.455 0 0 1 -1.09-.613 3.016 3.016 0 0 1 -.817-1.022 3.338 3.338 0 0 1 -.477-1.294 4.117 4.117 0 0 1 0-1.294 2.473 2.473 0 0 1 .477-1.158 2.551 2.551 0 0 1 .886-.817 4.373 4.373 0 0 1 1.362-.545 1.669 1.669 0 0 1 1.022.068.916.916 0 0 1 .477.409c.136.2.272.477.477.749z" transform="translate(-7.214 -3.199)"/><path d="m34.388 7.068a5.79 5.79 0 0 1 1.771 0 1.624 1.624 0 0 1 .749.409 1.54 1.54 0 0 1 .409.886 1.362 1.362 0 0 1 -.136.886 1.67 1.67 0 0 1 -.881.751 2.807 2.807 0 0 1 .817.068 1.369 1.369 0 0 1 .545.272 1.806 1.806 0 0 1 .341.409 4.693 4.693 0 0 1 .2.545 1.5 1.5 0 0 1 -.068.954 1.73 1.73 0 0 1 -.545.681 1.554 1.554 0 0 1 -.817.409 2.4 2.4 0 0 1 -.954.2l-1.975.341-.954-5.244a1.581 1.581 0 0 0 -.272-.681c-.068-.272-.272-.341-.545-.272h-.2l-.068-.2zm.682 2.932c.2-.068.409-.068.545-.2s.341-.2.477-.341a1.1 1.1 0 0 0 .272-.477.945.945 0 0 0 0-.613 1.369 1.369 0 0 0 -.272-.545 1.222 1.222 0 0 0 -.477-.341 1.989 1.989 0 0 0 -.615-.142 1.886 1.886 0 0 0 -.613.068c-.136 0-.272.068-.409.068-.136.068-.272.068-.341.136l.477 2.52zm-.886.545.477 2.588h.477a1.159 1.159 0 0 0 .477-.068 2.1 2.1 0 0 0 1.294-.613 1.06 1.06 0 0 0 .272-1.09 1.408 1.408 0 0 0 -.681-.954 1.969 1.969 0 0 0 -1.43-.068z" transform="translate(-10.139 -2.232)"/><path d="m53.722 10.885a2.749 2.749 0 0 0 -.2-1.567 2.048 2.048 0 0 0 -1.09-.886 4.6 4.6 0 0 0 -.954-.136 1.932 1.932 0 0 0 -.886.272 2.726 2.726 0 0 0 -.817.749 5.077 5.077 0 0 0 -.681 1.362 2.824 2.824 0 0 0 -.2 1.09 5.156 5.156 0 0 0 .068 1.022 2.243 2.243 0 0 0 .477.886 1.938 1.938 0 0 0 .954.613 2.131 2.131 0 0 0 1.294.068 3.694 3.694 0 0 0 1.226-.681l.136.2a2.607 2.607 0 0 1 -.749.545 3.32 3.32 0 0 1 -.749.272 1.691 1.691 0 0 1 -.613.068 1.814 1.814 0 0 1 -.817-.2 2.5 2.5 0 0 1 -1.158-.681 3.07 3.07 0 0 1 -.681-.954 3.254 3.254 0 0 1 -.282-1.227 3.966 3.966 0 0 1 .2-1.294 3.572 3.572 0 0 1 .681-1.226 3.887 3.887 0 0 1 .954-.886 3.354 3.354 0 0 1 1.165-.407 2.535 2.535 0 0 1 1.226.136 4.589 4.589 0 0 1 1.294.681 1.616 1.616 0 0 1 .613.817 1.155 1.155 0 0 1 0 .681 3.84 3.84 0 0 1 -.272.817z" transform="translate(-15.304 -2.506)"/><path d="m58.58 19.809v-.545h-.068a.921.921 0 0 1 -.613 0 1.549 1.549 0 0 1 -.817-.409c-.136-.068-.2-.2-.341-.341a1.1 1.1 0 0 1 -.272-.477 1.5 1.5 0 0 1 -.068-.545 1.224 1.224 0 0 1 .272-.613 1.059 1.059 0 0 1 .545-.409 1.161 1.161 0 0 1 .681 0 3.32 3.32 0 0 1 .749.272 5.682 5.682 0 0 1 .817.545l.272.2a2.775 2.775 0 0 0 .409-.749 2.106 2.106 0 0 0 .136-.545.968.968 0 0 0 -.136-.409c-.068-.136-.2-.2-.272-.272a1.438 1.438 0 0 0 -.681-.272.976.976 0 0 0 -.681.272l-.341-.272a.821.821 0 0 1 .341-.341.589.589 0 0 1 .409-.2h.272a1.151 1.151 0 0 1 .341.136 1.489 1.489 0 0 1 .341.2 1.425 1.425 0 0 1 .409.272 1.591 1.591 0 0 1 .477.477 1.369 1.369 0 0 1 .272.545 1.472 1.472 0 0 1 -.068.749 2.794 2.794 0 0 1 -.545.954l-1.567 2.18zm1.09-2.043-.272-.2a2.14 2.14 0 0 0 -1.09-.477c-.341 0-.613.068-.749.341l-.2.409v.341c0 .136.068.2.136.341.068.068.136.2.272.272a1.087 1.087 0 0 0 .545.2 1.6 1.6 0 0 0 .545-.136z" transform="translate(-17.983 -4.687)"/><path d="m67.758 19.962a.94.94 0 0 0 -.272-.2.41.41 0 0 0 -.272-.068.968.968 0 0 0 -.409.136 2.07 2.07 0 0 0 -.477.341l-.272.2.886 1.022-.272.272-.885-1.022-3.27 2.793-.613-.681 3.27-2.793-.477-.545.272-.272.477.545.2-.2a2.046 2.046 0 0 1 .749-.409 1.161 1.161 0 0 1 .681 0 1.369 1.369 0 0 1 .545.272c.136.136.341.272.477.409.272.341.409.545.409.749v.272c0 .068-.068.2-.068.272l-.409-.068a1.013 1.013 0 0 0 -.27-1.025z" transform="translate(-19.736 -6.066)"/><path d="m68.733 29.559-1.362-2.659a2.377 2.377 0 0 0 -.613.409 1.277 1.277 0 0 0 -.409.477 1.6 1.6 0 0 0 -.136.545 1.283 1.283 0 0 0 .136.545 1.608 1.608 0 0 0 .545.613 2.3 2.3 0 0 0 .817.272l-.068.272a1.885 1.885 0 0 1 -1.09-.341 3.57 3.57 0 0 1 -.681-.749 2.6 2.6 0 0 1 -.272-.886 3.419 3.419 0 0 1 .136-.817 2.446 2.446 0 0 1 .477-.681 3.024 3.024 0 0 1 .749-.545 4.729 4.729 0 0 1 .886-.341 1.944 1.944 0 0 1 .885 0 1.512 1.512 0 0 1 .749.341 1.423 1.423 0 0 1 .545.681 1.921 1.921 0 0 1 .2 1.567 2.277 2.277 0 0 1 -1.226 1.158zm-.068-1.022a2.662 2.662 0 0 0 1.022-.817.838.838 0 0 0 .068-.886c-.068-.136-.2-.2-.341-.341a.985.985 0 0 0 -.477-.136 1.886 1.886 0 0 0 -.613.068 4.7 4.7 0 0 0 -.681.272z" transform="translate(-20.916 -8.17)"/><path d="m17.861 63.244a2.39 2.39 0 0 1 -.545.341h-.616a.773.773 0 0 1 -.545-.2 3.412 3.412 0 0 1 -.545-.477 2.39 2.39 0 0 1 -.341-.545 1.1 1.1 0 0 1 -.2-.613 1.5 1.5 0 0 1 -.069-.55.485.485 0 0 1 .2-.409l.681-.545.136.136a1.981 1.981 0 0 0 -.545 1.158 1.812 1.812 0 0 0 .409 1.09c.068.136.2.2.272.272.136.068.2.136.341.136h.341c.136 0 .2-.068.341-.136a.936.936 0 0 0 .341-.545 3.909 3.909 0 0 0 -.068-.817l-.2-1.158a2.195 2.195 0 0 1 0-.954 1.152 1.152 0 0 1 .477-.681 1.369 1.369 0 0 1 .545-.272.752.752 0 0 1 .545 0 .906.906 0 0 1 .545.2 2.963 2.963 0 0 1 .477.409 1.483 1.483 0 0 1 .341.545 2.8 2.8 0 0 1 .2.545.752.752 0 0 1 0 .545.777.777 0 0 1 -.2.409l-.681.545-.136-.136a1.981 1.981 0 0 0 .545-1.158 1.636 1.636 0 0 0 -.409-1.022.94.94 0 0 0 -.272-.2.52.52 0 0 0 -.341-.136h-.341c-.136 0-.2.068-.341.136a.94.94 0 0 0 -.2.272.41.41 0 0 0 -.068.272v.341a1.33 1.33 0 0 0 .065.478l.2 1.158c0 .2.068.409.068.545v.409a.52.52 0 0 1 -.136.341c-.067.067-.203.135-.271.271z" transform="translate(-4.783 -18.629)"/><path d="m20.445 67.459-.545-.477 1.839-2.18c.136-.2.272-.341.272-.545s0-.341-.2-.477l-.068-.068.136-.136.545.477c.136.068.2.2.272.272v.2a1.151 1.151 0 0 1 -.136.341 1.425 1.425 0 0 1 -.272.409zm3-3.61a.354.354 0 0 1 -.272.136.41.41 0 0 1 -.272-.068.494.494 0 0 1 0-.681.354.354 0 0 1 .272-.136.41.41 0 0 1 .272.068.52.52 0 0 1 .136.341.44.44 0 0 1 -.139.34z" transform="translate(-6.345 -20.119)"/><path d="m24.862 67.358a1.087 1.087 0 0 0 .2-.545.424.424 0 0 0 -.272-.409l-.136-.068.068-.136.613.341a.8.8 0 0 1 .341.341.51.51 0 0 1 .068.341h.068a1.159 1.159 0 0 1 .477-.068 1.1 1.1 0 0 1 .613.2c.136.068.272.2.409.272a1.425 1.425 0 0 1 .272.409 1.328 1.328 0 0 1 .068.545 1.768 1.768 0 0 1 -.272.681l-1.226 2.112-.613-.341 1.226-2.112a3.32 3.32 0 0 1 .2-.477v-.409a.354.354 0 0 0 -.136-.272.94.94 0 0 0 -.272-.2.5.5 0 0 0 -.409-.136c-.136 0-.341.068-.477.068l-1.567 2.725-.613-.341z" transform="translate(-7.493 -21.108)"/><path d="m33.452 70.236a7.067 7.067 0 0 1 .681.272.56.56 0 0 1 .341.341c0 .068.068.136.068.2v.2a.41.41 0 0 1 -.068.272c0 .136-.068.2-.136.409l-.136-.068a1.072 1.072 0 0 0 -.068-.817 1.483 1.483 0 0 0 -.613-.477.746.746 0 0 0 -.545 0c-.136.068-.341.136-.477.2a1.222 1.222 0 0 0 -.341.477c-.068.2-.2.409-.272.613a2.015 2.015 0 0 0 -.136.681 1.328 1.328 0 0 0 .068.545 1.044 1.044 0 0 0 .749.749 3.055 3.055 0 0 0 .749.068 1.392 1.392 0 0 0 .613-.341l.136.136a2.024 2.024 0 0 1 -.886.409 1.355 1.355 0 0 1 -.886-.068 1.624 1.624 0 0 1 -.749-.409 1.059 1.059 0 0 1 -.409-.545 2.42 2.42 0 0 1 -.135-.667 2.449 2.449 0 0 1 .136-.749 3.651 3.651 0 0 1 .341-.749 1.836 1.836 0 0 1 .477-.545 2.04 2.04 0 0 1 .681-.272c.272.067.477.067.817.135z" transform="translate(-9.884 -22.351)"/><path d="m41.133 73.484-2.452-.136v.613a.618.618 0 0 0 .2.477.821.821 0 0 0 .341.341.985.985 0 0 0 .477.136 1.12 1.12 0 0 0 .681-.136c.2-.068.341-.272.545-.477l.136.136a1.932 1.932 0 0 1 -.681.613 1.728 1.728 0 0 1 -.817.136 1.373 1.373 0 0 1 -.749-.2 1.592 1.592 0 0 1 -.477-.477 2.04 2.04 0 0 1 -.272-.681 3.054 3.054 0 0 1 -.065-.822 2.449 2.449 0 0 1 .136-.749 2.761 2.761 0 0 1 .341-.613 3.778 3.778 0 0 1 .545-.409 2.015 2.015 0 0 1 .678-.136 1.485 1.485 0 0 1 1.5 1.907zm-.681-.341a2.5 2.5 0 0 0 -.136-1.09.655.655 0 0 0 -.613-.409.51.51 0 0 0 -.341.068.532.532 0 0 0 -.272.272 3.321 3.321 0 0 0 -.2.477c-.068.2-.068.341-.136.613z" transform="translate(-12.116 -22.67)"/><path d="m51.138 72.9a.981.981 0 0 0 .681-.409.781.781 0 0 0 .068-.681l.136-.068.136.545c0 .068.068.136.068.272s0 .136-.068.2-.068.136-.136.2a.52.52 0 0 1 -.341.136l-2.793.817-.068-.477a11.98 11.98 0 0 1 .817-1.362 5.4 5.4 0 0 0 .546-1.073 6.326 6.326 0 0 0 .272-.886 2.029 2.029 0 0 0 -.068-.886 3.32 3.32 0 0 0 -.2-.477.68.68 0 0 0 -.341-.272.968.968 0 0 0 -.409-.136.864.864 0 0 0 -.409.068 1.212 1.212 0 0 0 -.749.545 1.97 1.97 0 0 0 -.2 1.158h-.136a2.106 2.106 0 0 1 -.136-.545 1.159 1.159 0 0 1 .068-.477 1.878 1.878 0 0 1 .477-.613 1.856 1.856 0 0 1 .817-.409 2.214 2.214 0 0 1 1.09 0 2.39 2.39 0 0 1 .545.341 1.537 1.537 0 0 1 .341.749 1.741 1.741 0 0 1 0 1.022 3.211 3.211 0 0 1 -.409 1.022c-.2.341-.409.681-.681 1.09a11.847 11.847 0 0 0 -.749 1.226z" transform="translate(-15.241 -21.682)"/><path d="m55.386 65.372a1.649 1.649 0 0 1 .886-.272 1.814 1.814 0 0 1 .817.2 2.969 2.969 0 0 1 .749.613 11.558 11.558 0 0 1 .681.954 3.8 3.8 0 0 1 .481 1.094 2.482 2.482 0 0 1 .136.954 1.814 1.814 0 0 1 -.2.817 1.218 1.218 0 0 1 -.681.613 2.6 2.6 0 0 1 -.886.272 1.814 1.814 0 0 1 -.817-.2 2.97 2.97 0 0 1 -.749-.613 11.556 11.556 0 0 1 -.681-.954 3.8 3.8 0 0 1 -.477-1.09 2.482 2.482 0 0 1 -.145-.96 1.814 1.814 0 0 1 .2-.817 1.491 1.491 0 0 1 .686-.611zm.2.272a1.157 1.157 0 0 0 -.409.409 1.512 1.512 0 0 0 -.068.613 4.188 4.188 0 0 0 .2.749 7.865 7.865 0 0 0 .545 1.022c.2.341.409.681.613.954a2.473 2.473 0 0 0 .553.609.906.906 0 0 0 .545.2.819.819 0 0 0 .545-.136 1.157 1.157 0 0 0 .409-.409 1.512 1.512 0 0 0 .068-.613 4.188 4.188 0 0 0 -.2-.749 7.865 7.865 0 0 0 -.545-1.022c-.2-.341-.409-.681-.613-.954a2.473 2.473 0 0 0 -.545-.613.906.906 0 0 0 -.545-.2.53.53 0 0 0 -.549.141z" transform="translate(-17.377 -20.757)"/><path d="m64.219 66.019-.545.477-3.065-3.406-.2.954-.2-.068.2-1.7.268-.276z" transform="translate(-19.195 -19.769)"/><path d="m63.488 58.049a2.768 2.768 0 0 1 .681-.613 1.728 1.728 0 0 1 .817-.136 2.924 2.924 0 0 1 .954.272 4.065 4.065 0 0 1 1.022.613 10.476 10.476 0 0 1 .886.817 5.682 5.682 0 0 1 .545.817 1.139 1.139 0 0 1 .068.817 1.549 1.549 0 0 1 -.409.817 2.768 2.768 0 0 1 -.681.613 1.728 1.728 0 0 1 -.817.136 2.924 2.924 0 0 1 -.954-.272 4.065 4.065 0 0 1 -1.022-.613 10.476 10.476 0 0 1 -.886-.817 2.85 2.85 0 0 1 -.545-.817 1.139 1.139 0 0 1 -.068-.817 4.478 4.478 0 0 1 .409-.817zm.272.2a.906.906 0 0 0 -.2.545 1.6 1.6 0 0 0 .136.545 2.207 2.207 0 0 0 .545.613c.2.2.545.477.886.749a5.483 5.483 0 0 0 .954.613 6.638 6.638 0 0 0 .749.341.945.945 0 0 0 .613 0 1.222 1.222 0 0 0 .477-.341.906.906 0 0 0 .2-.545 1.6 1.6 0 0 0 -.136-.545 2.207 2.207 0 0 0 -.545-.613c-.2-.2-.545-.477-.886-.749a5.483 5.483 0 0 0 -.954-.613 6.637 6.637 0 0 0 -.749-.341.945.945 0 0 0 -.613 0 1.222 1.222 0 0 0 -.477.346z" transform="translate(-20.098 -18.27)"/></g><circle cx="7.56" cy="28.949" fill="#8de1ff" r="2.043"/><circle cx="50.337" cy="28.949" fill="#8de1ff" r="2.043"/></svg>